<svg width="32" height="32" viewBox="0 0 32 32" fill="none" xmlns="http://www.w3.org/2000/svg">
<path d="M27.3 4.7H4.7C3.2 4.7 2 5.9 2 7.4V24.6C2 26.1 3.2 27.3 4.7 27.3H27.3C28.8 27.3 30 26.1 30 24.6V7.4C30 5.9 28.8 4.7 27.3 4.7Z" fill="currentColor"/>
<path d="M12.5 11.3H9.3V22.7H12.5V11.3Z" fill="white"/>
<path d="M10.9 8.9C11.9 8.9 12.7 9.7 12.7 10.7C12.7 11.7 11.9 12.5 10.9 12.5C9.9 12.5 9.1 11.7 9.1 10.7C9.1 9.7 9.9 8.9 10.9 8.9Z" fill="white"/>
<path d="M22.7 16.2C22.7 13.9 21.3 12.9 19.3 12.9C17.1 12.9 15.5 14.7 15.5 17.5C15.5 20.3 17.1 22.1 19.5 22.1C21.3 22.1 22.5 21.3 22.7 19.7H20.3C20.1 20.3 19.7 20.5 19.1 20.5C18.3 20.5 17.9 19.9 17.9 18.9H22.7V16.2ZM17.9 16.7C17.9 15.9 18.3 15.3 19.1 15.3C19.9 15.3 20.3 15.9 20.3 16.7H17.9Z" fill="white"/>
</svg>